<?xml version="1.0" encoding="UTF-8" standalone="no"?>
<!DOCTYPE svg PUBLIC "-//W3C//DTD SVG 1.1//EN"
 "http://www.w3.org/Graphics/SVG/1.1/DTD/svg11.dtd">
<!-- Generated by graphviz version 2.40.1 (20161225.0304)
 -->
<!-- Title: D Pages: 1 -->
<svg width="332pt" height="152pt"
 viewBox="0.00 0.00 332.00 152.00" xmlns="http://www.w3.org/2000/svg" xmlns:xlink="http://www.w3.org/1999/xlink">
<g id="graph0" class="graph" transform="scale(1 1) rotate(0) translate(4 148)">
<title>D</title>
<polygon fill="#ffffff" stroke="transparent" points="-4,4 -4,-148 328,-148 328,4 -4,4"/>
<!-- T1 -->
<g id="node1" class="node">
<title>T1</title>
<ellipse fill="#00ffff" stroke="#000000" cx="18" cy="-45" rx="18" ry="18"/>
<text text-anchor="middle" x="18" y="-41.4" font-family="Times,serif" font-size="12.00" fill="#000000">T1</text>
</g>
<!-- T2 -->
<g id="node2" class="node">
<title>T2</title>
<ellipse fill="#00ffff" stroke="#000000" cx="90" cy="-70" rx="18" ry="18"/>
<text text-anchor="middle" x="90" y="-66.4" font-family="Times,serif" font-size="12.00" fill="#000000">T2</text>
</g>
<!-- T1&#45;&gt;T2 -->
<g id="edge2" class="edge">
<title>T1&#45;&gt;T2</title>
<path fill="none" stroke="#000000" d="M35.063,-50.9247C43.3695,-53.8089 53.5565,-57.346 62.8923,-60.5876"/>
<polygon fill="#000000" stroke="#000000" points="61.9645,-63.9704 72.5593,-63.9442 64.2606,-57.3577 61.9645,-63.9704"/>
</g>
<!-- T4 -->
<g id="node4" class="node">
<title>T4</title>
<ellipse fill="#00ffff" stroke="#000000" cx="162" cy="-18" rx="18" ry="18"/>
<text text-anchor="middle" x="162" y="-14.4" font-family="Times,serif" font-size="12.00" fill="#000000">T4</text>
</g>
<!-- T1&#45;&gt;T4 -->
<g id="edge1" class="edge">
<title>T1&#45;&gt;T4</title>
<path fill="none" stroke="#000000" d="M35.9465,-41.635C60.6569,-37.0018 105.3848,-28.6153 134.3766,-23.1794"/>
<polygon fill="#000000" stroke="#000000" points="135.096,-26.6056 144.2796,-21.3226 133.8059,-19.7255 135.096,-26.6056"/>
</g>
<!-- T3 -->
<g id="node3" class="node">
<title>T3</title>
<ellipse fill="#00ffff" stroke="#000000" cx="162" cy="-126" rx="18" ry="18"/>
<text text-anchor="middle" x="162" y="-122.4" font-family="Times,serif" font-size="12.00" fill="#000000">T3</text>
</g>
<!-- T2&#45;&gt;T3 -->
<g id="edge4" class="edge">
<title>T2&#45;&gt;T3</title>
<path fill="none" stroke="#000000" d="M104.2249,-81.0638C114.2502,-88.8613 127.8844,-99.4656 139.3904,-108.4147"/>
<polygon fill="#000000" stroke="#000000" points="137.268,-111.198 147.3104,-114.5747 141.5656,-105.6725 137.268,-111.198"/>
</g>
<!-- T2&#45;&gt;T4 -->
<g id="edge3" class="edge">
<title>T2&#45;&gt;T4</title>
<path fill="none" stroke="#000000" d="M104.9184,-59.2256C114.6689,-52.1836 127.605,-42.8409 138.6968,-34.8301"/>
<polygon fill="#000000" stroke="#000000" points="141.0431,-37.453 147.1007,-28.7606 136.9446,-31.7782 141.0431,-37.453"/>
</g>
<!-- T5 -->
<g id="node5" class="node">
<title>T5</title>
<ellipse fill="#00ffff" stroke="#000000" cx="162" cy="-72" rx="18" ry="18"/>
<text text-anchor="middle" x="162" y="-68.4" font-family="Times,serif" font-size="12.00" fill="#000000">T5</text>
</g>
<!-- T2&#45;&gt;T5 -->
<g id="edge5" class="edge">
<title>T2&#45;&gt;T5</title>
<path fill="none" stroke="#000000" d="M108.1686,-70.5047C115.869,-70.7186 125.0257,-70.9729 133.5834,-71.2106"/>
<polygon fill="#000000" stroke="#000000" points="133.4934,-74.7094 143.5867,-71.4885 133.6878,-67.7121 133.4934,-74.7094"/>
</g>
<!-- T8 -->
<g id="node8" class="node">
<title>T8</title>
<ellipse fill="#00ffff" stroke="#000000" cx="234" cy="-126" rx="18" ry="18"/>
<text text-anchor="middle" x="234" y="-122.4" font-family="Times,serif" font-size="12.00" fill="#000000">T8</text>
</g>
<!-- T3&#45;&gt;T8 -->
<g id="edge6" class="edge">
<title>T3&#45;&gt;T8</title>
<path fill="none" stroke="#000000" d="M180.1686,-126C187.869,-126 197.0257,-126 205.5834,-126"/>
<polygon fill="#000000" stroke="#000000" points="205.5868,-129.5001 215.5867,-126 205.5867,-122.5001 205.5868,-129.5001"/>
</g>
<!-- T6 -->
<g id="node6" class="node">
<title>T6</title>
<ellipse fill="#00ffff" stroke="#000000" cx="234" cy="-72" rx="18" ry="18"/>
<text text-anchor="middle" x="234" y="-68.4" font-family="Times,serif" font-size="12.00" fill="#000000">T6</text>
</g>
<!-- T5&#45;&gt;T6 -->
<g id="edge7" class="edge">
<title>T5&#45;&gt;T6</title>
<path fill="none" stroke="#000000" d="M180.1686,-72C187.869,-72 197.0257,-72 205.5834,-72"/>
<polygon fill="#000000" stroke="#000000" points="205.5868,-75.5001 215.5867,-72 205.5867,-68.5001 205.5868,-75.5001"/>
</g>
<!-- T7 -->
<g id="node7" class="node">
<title>T7</title>
<ellipse fill="#00ffff" stroke="#000000" cx="306" cy="-99" rx="18" ry="18"/>
<text text-anchor="middle" x="306" y="-95.4" font-family="Times,serif" font-size="12.00" fill="#000000">T7</text>
</g>
<!-- T6&#45;&gt;T7 -->
<g id="edge9" class="edge">
<title>T6&#45;&gt;T7</title>
<path fill="none" stroke="#000000" d="M251.063,-78.3986C259.5814,-81.593 270.0773,-85.529 279.6048,-89.1018"/>
<polygon fill="#000000" stroke="#000000" points="278.4672,-92.4132 289.0595,-92.6473 280.9251,-85.8589 278.4672,-92.4132"/>
</g>
<!-- T8&#45;&gt;T7 -->
<g id="edge8" class="edge">
<title>T8&#45;&gt;T7</title>
<path fill="none" stroke="#000000" d="M251.063,-119.6014C259.5814,-116.407 270.0773,-112.471 279.6048,-108.8982"/>
<polygon fill="#000000" stroke="#000000" points="280.9251,-112.1411 289.0595,-105.3527 278.4672,-105.5868 280.9251,-112.1411"/>
</g>
</g>
</svg>
