<?xml version="1.0" encoding="UTF-8" standalone="no"?>
<!DOCTYPE svg PUBLIC "-//W3C//DTD SVG 1.1//EN"
 "http://www.w3.org/Graphics/SVG/1.1/DTD/svg11.dtd">
<!-- Generated by graphviz version 2.40.1 (20161225.0304)
 -->
<!-- Title: D Pages: 1 -->
<svg width="396pt" height="368pt"
 viewBox="0.00 0.00 395.92 368.00" xmlns="http://www.w3.org/2000/svg" xmlns:xlink="http://www.w3.org/1999/xlink">
<g id="graph0" class="graph" transform="scale(1 1) rotate(0) translate(4 364)">
<title>D</title>
<polygon fill="#ffffff" stroke="transparent" points="-4,4 -4,-364 391.9246,-364 391.9246,4 -4,4"/>
<g id="clust1" class="cluster">
<title>cluster_1</title>
<polygon fill="#add8e6" stroke="#add8e6" points="8,-154 8,-352 379.9246,-352 379.9246,-154 8,-154"/>
<text text-anchor="middle" x="193.9623" y="-338.4" font-family="Times,serif" font-size="12.00" fill="#000000">Workflow &#45; 1</text>
</g>
<g id="clust2" class="cluster">
<title>cluster_2</title>
<polygon fill="#7fffd4" stroke="#7fffd4" points="164.4527,-8 164.4527,-146 379.9246,-146 379.9246,-8 164.4527,-8"/>
<text text-anchor="middle" x="272.1887" y="-132.4" font-family="Times,serif" font-size="12.00" fill="#000000">Workflow &#45; 2</text>
</g>
<!-- T11 -->
<g id="node1" class="node">
<title>T11</title>
<ellipse fill="#00ffff" stroke="#000000" cx="36.9811" cy="-273" rx="20.9621" ry="20.9621"/>
<text text-anchor="start" x="27.5357" y="-270.4" font-family="Times,serif" font-size="12.00" fill="#000000">T</text>
<text text-anchor="start" x="34.8658" y="-270.4" font-family="Times,serif" baseline-shift="sub" font-size="12.00" fill="#000000">11</text>
</g>
<!-- T12 -->
<g id="node2" class="node">
<title>T12</title>
<ellipse fill="#00ffff" stroke="#000000" cx="115.2074" cy="-248" rx="21.4935" ry="21.4935"/>
<text text-anchor="start" x="105.5424" y="-245.4" font-family="Times,serif" font-size="12.00" fill="#000000">T</text>
<text text-anchor="start" x="112.8725" y="-245.4" font-family="Times,serif" baseline-shift="sub" font-size="12.00" fill="#000000">12</text>
</g>
<!-- T11&#45;&gt;T12 -->
<g id="edge2" class="edge">
<title>T11&#45;&gt;T12</title>
<path fill="none" stroke="#000000" d="M57.1263,-266.5619C65.6369,-263.842 75.7284,-260.6169 85.0924,-257.6243"/>
<polygon fill="#000000" stroke="#000000" points="86.3987,-260.8813 94.8586,-254.5032 84.2677,-254.2135 86.3987,-260.8813"/>
</g>
<!-- T14 -->
<g id="node4" class="node">
<title>T14</title>
<ellipse fill="#00ffff" stroke="#000000" cx="193.698" cy="-303" rx="21.4935" ry="21.4935"/>
<text text-anchor="start" x="184.033" y="-300.4" font-family="Times,serif" font-size="12.00" fill="#000000">T</text>
<text text-anchor="start" x="191.3631" y="-300.4" font-family="Times,serif" baseline-shift="sub" font-size="12.00" fill="#000000">14</text>
</g>
<!-- T11&#45;&gt;T14 -->
<g id="edge1" class="edge">
<title>T11&#45;&gt;T14</title>
<path fill="none" stroke="#000000" d="M57.7919,-276.9838C84.7219,-282.1389 131.8628,-291.163 162.9329,-297.1107"/>
<polygon fill="#000000" stroke="#000000" points="162.3214,-300.5571 172.8012,-298.9998 163.6376,-293.682 162.3214,-300.5571"/>
</g>
<!-- T13 -->
<g id="node3" class="node">
<title>T13</title>
<ellipse fill="#00ffff" stroke="#000000" cx="193.698" cy="-243" rx="21.4935" ry="21.4935"/>
<text text-anchor="start" x="184.033" y="-240.4" font-family="Times,serif" font-size="12.00" fill="#000000">T</text>
<text text-anchor="start" x="191.3631" y="-240.4" font-family="Times,serif" baseline-shift="sub" font-size="12.00" fill="#000000">13</text>
</g>
<!-- T12&#45;&gt;T13 -->
<g id="edge4" class="edge">
<title>T12&#45;&gt;T13</title>
<path fill="none" stroke="#000000" d="M136.6553,-246.6337C144.529,-246.1322 153.6154,-245.5533 162.1888,-245.0072"/>
<polygon fill="#000000" stroke="#000000" points="162.5188,-248.4934 172.2761,-244.3646 162.0738,-241.5075 162.5188,-248.4934"/>
</g>
<!-- T12&#45;&gt;T14 -->
<g id="edge3" class="edge">
<title>T12&#45;&gt;T14</title>
<path fill="none" stroke="#000000" d="M132.627,-260.2063C142.9202,-267.4189 156.1504,-276.6896 167.6634,-284.757"/>
<polygon fill="#000000" stroke="#000000" points="165.8576,-287.7654 176.0557,-290.6377 169.8747,-282.0327 165.8576,-287.7654"/>
</g>
<!-- T15 -->
<g id="node5" class="node">
<title>T15</title>
<ellipse fill="#00ffff" stroke="#000000" cx="193.698" cy="-183" rx="21.4935" ry="21.4935"/>
<text text-anchor="start" x="184.033" y="-180.4" font-family="Times,serif" font-size="12.00" fill="#000000">T</text>
<text text-anchor="start" x="191.3631" y="-180.4" font-family="Times,serif" baseline-shift="sub" font-size="12.00" fill="#000000">15</text>
</g>
<!-- T12&#45;&gt;T15 -->
<g id="edge5" class="edge">
<title>T12&#45;&gt;T15</title>
<path fill="none" stroke="#000000" d="M131.8533,-234.2152C142.6759,-225.2527 156.9768,-213.4098 169.1003,-203.37"/>
<polygon fill="#000000" stroke="#000000" points="171.6066,-205.8388 177.0762,-196.765 167.1419,-200.4475 171.6066,-205.8388"/>
</g>
<!-- T18 -->
<g id="node8" class="node">
<title>T18</title>
<ellipse fill="#00ffff" stroke="#000000" cx="272.1887" cy="-243" rx="21.4935" ry="21.4935"/>
<text text-anchor="start" x="262.5236" y="-240.4" font-family="Times,serif" font-size="12.00" fill="#000000">T</text>
<text text-anchor="start" x="269.8537" y="-240.4" font-family="Times,serif" baseline-shift="sub" font-size="12.00" fill="#000000">18</text>
</g>
<!-- T13&#45;&gt;T18 -->
<g id="edge6" class="edge">
<title>T13&#45;&gt;T18</title>
<path fill="none" stroke="#000000" d="M215.1459,-243C223.0197,-243 232.106,-243 240.6794,-243"/>
<polygon fill="#000000" stroke="#000000" points="240.7667,-246.5001 250.7667,-243 240.7666,-239.5001 240.7667,-246.5001"/>
</g>
<!-- T16 -->
<g id="node6" class="node">
<title>T16</title>
<ellipse fill="#00ffff" stroke="#000000" cx="272.1887" cy="-183" rx="21.4935" ry="21.4935"/>
<text text-anchor="start" x="262.5236" y="-180.4" font-family="Times,serif" font-size="12.00" fill="#000000">T</text>
<text text-anchor="start" x="269.8537" y="-180.4" font-family="Times,serif" baseline-shift="sub" font-size="12.00" fill="#000000">16</text>
</g>
<!-- T15&#45;&gt;T16 -->
<g id="edge7" class="edge">
<title>T15&#45;&gt;T16</title>
<path fill="none" stroke="#000000" d="M215.1459,-183C223.0197,-183 232.106,-183 240.6794,-183"/>
<polygon fill="#000000" stroke="#000000" points="240.7667,-186.5001 250.7667,-183 240.7666,-179.5001 240.7667,-186.5001"/>
</g>
<!-- T22 -->
<g id="node10" class="node">
<title>T22</title>
<ellipse fill="#00ffff" stroke="#000000" cx="272.1887" cy="-97" rx="21.4935" ry="21.4935"/>
<text text-anchor="start" x="262.5236" y="-94.4" font-family="Times,serif" font-size="12.00" fill="#000000">T</text>
<text text-anchor="start" x="269.8537" y="-94.4" font-family="Times,serif" baseline-shift="sub" font-size="12.00" fill="#000000">22</text>
</g>
<!-- T15&#45;&gt;T22 -->
<g id="edge14" class="edge">
<title>T15&#45;&gt;T22</title>
<path fill="none" stroke="#000000" d="M208.0944,-167.2263C219.9691,-154.2155 237,-135.5553 250.5217,-120.7399"/>
<polygon fill="#000000" stroke="#000000" points="253.4616,-122.7106 257.6177,-112.965 248.2913,-117.9917 253.4616,-122.7106"/>
</g>
<!-- T17 -->
<g id="node7" class="node">
<title>T17</title>
<ellipse fill="#00ffff" stroke="#000000" cx="350.6793" cy="-213" rx="21.4935" ry="21.4935"/>
<text text-anchor="start" x="341.0142" y="-210.4" font-family="Times,serif" font-size="12.00" fill="#000000">T</text>
<text text-anchor="start" x="348.3443" y="-210.4" font-family="Times,serif" baseline-shift="sub" font-size="12.00" fill="#000000">17</text>
</g>
<!-- T16&#45;&gt;T17 -->
<g id="edge9" class="edge">
<title>T16&#45;&gt;T17</title>
<path fill="none" stroke="#000000" d="M292.4019,-190.7257C301.167,-194.0759 311.6033,-198.0647 321.206,-201.735"/>
<polygon fill="#000000" stroke="#000000" points="320.2156,-205.1033 330.8062,-205.4043 322.7148,-198.5647 320.2156,-205.1033"/>
</g>
<!-- T18&#45;&gt;T17 -->
<g id="edge8" class="edge">
<title>T18&#45;&gt;T17</title>
<path fill="none" stroke="#000000" d="M292.4019,-235.2743C301.167,-231.9241 311.6033,-227.9353 321.206,-224.265"/>
<polygon fill="#000000" stroke="#000000" points="322.7148,-227.4353 330.8062,-220.5957 320.2156,-220.8967 322.7148,-227.4353"/>
</g>
<!-- T21 -->
<g id="node9" class="node">
<title>T21</title>
<ellipse fill="#00ffff" stroke="#000000" cx="193.698" cy="-67" rx="21.4935" ry="21.4935"/>
<text text-anchor="start" x="184.033" y="-64.4" font-family="Times,serif" font-size="12.00" fill="#000000">T</text>
<text text-anchor="start" x="191.3631" y="-64.4" font-family="Times,serif" baseline-shift="sub" font-size="12.00" fill="#000000">21</text>
</g>
<!-- T21&#45;&gt;T22 -->
<g id="edge10" class="edge">
<title>T21&#45;&gt;T22</title>
<path fill="none" stroke="#000000" d="M213.9113,-74.7257C222.6764,-78.0759 233.1127,-82.0647 242.7153,-85.735"/>
<polygon fill="#000000" stroke="#000000" points="241.725,-89.1033 252.3156,-89.4043 244.2242,-82.5647 241.725,-89.1033"/>
</g>
<!-- T23 -->
<g id="node11" class="node">
<title>T23</title>
<ellipse fill="#00ffff" stroke="#000000" cx="272.1887" cy="-37" rx="21.4935" ry="21.4935"/>
<text text-anchor="start" x="262.5236" y="-34.4" font-family="Times,serif" font-size="12.00" fill="#000000">T</text>
<text text-anchor="start" x="269.8537" y="-34.4" font-family="Times,serif" baseline-shift="sub" font-size="12.00" fill="#000000">23</text>
</g>
<!-- T21&#45;&gt;T23 -->
<g id="edge11" class="edge">
<title>T21&#45;&gt;T23</title>
<path fill="none" stroke="#000000" d="M213.9113,-59.2743C222.6764,-55.9241 233.1127,-51.9353 242.7153,-48.265"/>
<polygon fill="#000000" stroke="#000000" points="244.2242,-51.4353 252.3156,-44.5957 241.725,-44.8967 244.2242,-51.4353"/>
</g>
<!-- T24 -->
<g id="node12" class="node">
<title>T24</title>
<ellipse fill="#00ffff" stroke="#000000" cx="350.6793" cy="-67" rx="21.4935" ry="21.4935"/>
<text text-anchor="start" x="341.0142" y="-64.4" font-family="Times,serif" font-size="12.00" fill="#000000">T</text>
<text text-anchor="start" x="348.3443" y="-64.4" font-family="Times,serif" baseline-shift="sub" font-size="12.00" fill="#000000">24</text>
</g>
<!-- T22&#45;&gt;T24 -->
<g id="edge12" class="edge">
<title>T22&#45;&gt;T24</title>
<path fill="none" stroke="#000000" d="M292.4019,-89.2743C301.167,-85.9241 311.6033,-81.9353 321.206,-78.265"/>
<polygon fill="#000000" stroke="#000000" points="322.7148,-81.4353 330.8062,-74.5957 320.2156,-74.8967 322.7148,-81.4353"/>
</g>
<!-- T23&#45;&gt;T24 -->
<g id="edge13" class="edge">
<title>T23&#45;&gt;T24</title>
<path fill="none" stroke="#000000" d="M292.4019,-44.7257C301.167,-48.0759 311.6033,-52.0647 321.206,-55.735"/>
<polygon fill="#000000" stroke="#000000" points="320.2156,-59.1033 330.8062,-59.4043 322.7148,-52.5647 320.2156,-59.1033"/>
</g>
</g>
</svg>
