<?xml version="1.0" encoding="UTF-8" standalone="no"?>
<!DOCTYPE svg PUBLIC "-//W3C//DTD SVG 1.1//EN"
 "http://www.w3.org/Graphics/SVG/1.1/DTD/svg11.dtd">
<!-- Generated by graphviz version 2.40.1 (20161225.0304)
 -->
<!-- Title: D Pages: 1 -->
<svg width="622pt" height="408pt"
 viewBox="0.00 0.00 622.49 408.00" xmlns="http://www.w3.org/2000/svg" xmlns:xlink="http://www.w3.org/1999/xlink">
<g id="graph0" class="graph" transform="scale(1 1) rotate(0) translate(4 404)">
<title>D</title>
<polygon fill="#ffffff" stroke="transparent" points="-4,4 -4,-404 618.4853,-404 618.4853,4 -4,4"/>
<g id="clust1" class="cluster">
<title>cluster_1</title>
<polygon fill="#add8e6" stroke="#add8e6" points="8,-204 8,-392 606.4853,-392 606.4853,-204 8,-204"/>
<text text-anchor="middle" x="307.2426" y="-378.4" font-family="Times,serif" font-size="12.00" fill="#000000">Workflow &#45; 1</text>
</g>
<g id="clust2" class="cluster">
<title>cluster_2</title>
<polygon fill="#7fffd4" stroke="#7fffd4" points="306.1543,-8 306.1543,-196 602.8772,-196 602.8772,-8 306.1543,-8"/>
<text text-anchor="middle" x="454.5158" y="-182.4" font-family="Times,serif" font-size="12.00" fill="#000000">Workflow &#45; 2</text>
</g>
<!-- T11 -->
<g id="node1" class="node">
<title>T11</title>
<ellipse fill="#00ffff" stroke="#000000" cx="47.5162" cy="-254" rx="31.5324" ry="31.5324"/>
<text text-anchor="start" x="29.3111" y="-251.4" font-family="Times,serif" font-size="12.00" fill="#000000">T</text>
<text text-anchor="start" x="36.6412" y="-251.4" font-family="Times,serif" baseline-shift="sub" font-size="12.00" fill="#000000">11</text>
<text text-anchor="start" x="48.2018" y="-251.4" font-family="Times,serif" font-size="12.00" fill="#000000">{2}</text>
</g>
<!-- T12 -->
<g id="node2" class="node">
<title>T12</title>
<ellipse fill="#00ffff" stroke="#000000" cx="246.3738" cy="-264" rx="31.5624" ry="31.5624"/>
<text text-anchor="start" x="227.949" y="-261.4" font-family="Times,serif" font-size="12.00" fill="#000000">T</text>
<text text-anchor="start" x="235.2791" y="-261.4" font-family="Times,serif" baseline-shift="sub" font-size="12.00" fill="#000000">12</text>
<text text-anchor="start" x="247.2791" y="-261.4" font-family="Times,serif" font-size="12.00" fill="#000000">{3}</text>
</g>
<!-- T11&#45;&gt;T12 -->
<g id="edge2" class="edge">
<title>T11&#45;&gt;T12</title>
<path fill="none" stroke="#000000" d="M78.1269,-245.9711C104.7893,-240.1099 144.422,-234.1288 178.5934,-240 188.2724,-241.663 198.4037,-244.5705 207.7952,-247.8005"/>
<polygon fill="#000000" stroke="#000000" points="206.6703,-251.1156 217.2644,-251.2446 209.063,-244.5372 206.6703,-251.1156"/>
</g>
<!-- T14 -->
<g id="node4" class="node">
<title>T14</title>
<ellipse fill="#00ffff" stroke="#000000" cx="146.8129" cy="-281" rx="31.5624" ry="31.5624"/>
<text text-anchor="start" x="128.3881" y="-278.4" font-family="Times,serif" font-size="12.00" fill="#000000">T</text>
<text text-anchor="start" x="135.7182" y="-278.4" font-family="Times,serif" baseline-shift="sub" font-size="12.00" fill="#000000">14</text>
<text text-anchor="start" x="147.7182" y="-278.4" font-family="Times,serif" font-size="12.00" fill="#000000">{5}</text>
</g>
<!-- T11&#45;&gt;T14 -->
<g id="edge1" class="edge">
<title>T11&#45;&gt;T14</title>
<path fill="none" stroke="#000000" d="M78.1187,-262.3212C86.9904,-264.7335 96.8184,-267.4059 106.2008,-269.9571"/>
<polygon fill="#000000" stroke="#000000" points="105.5725,-273.4132 116.1405,-272.6598 107.4092,-266.6585 105.5725,-273.4132"/>
</g>
<!-- T13 -->
<g id="node3" class="node">
<title>T13</title>
<ellipse fill="#00ffff" stroke="#000000" cx="349.5428" cy="-332" rx="31.5624" ry="31.5624"/>
<text text-anchor="start" x="331.118" y="-329.4" font-family="Times,serif" font-size="12.00" fill="#000000">T</text>
<text text-anchor="start" x="338.4481" y="-329.4" font-family="Times,serif" baseline-shift="sub" font-size="12.00" fill="#000000">13</text>
<text text-anchor="start" x="350.4481" y="-329.4" font-family="Times,serif" font-size="12.00" fill="#000000">{6}</text>
</g>
<!-- T12&#45;&gt;T13 -->
<g id="edge4" class="edge">
<title>T12&#45;&gt;T13</title>
<path fill="none" stroke="#000000" d="M272.9424,-281.5117C285.4801,-289.7755 300.6194,-299.7539 314.1168,-308.6503"/>
<polygon fill="#000000" stroke="#000000" points="312.43,-311.7303 322.7057,-314.3113 316.2823,-305.8857 312.43,-311.7303"/>
</g>
<!-- T15 -->
<g id="node5" class="node">
<title>T15</title>
<ellipse fill="#00ffff" stroke="#000000" cx="349.5428" cy="-247" rx="35.2773" ry="35.2773"/>
<text text-anchor="start" x="328.118" y="-244.4" font-family="Times,serif" font-size="12.00" fill="#000000">T</text>
<text text-anchor="start" x="335.4481" y="-244.4" font-family="Times,serif" baseline-shift="sub" font-size="12.00" fill="#000000">15</text>
<text text-anchor="start" x="347.4481" y="-244.4" font-family="Times,serif" font-size="12.00" fill="#000000">{25}</text>
</g>
<!-- T12&#45;&gt;T15 -->
<g id="edge5" class="edge">
<title>T12&#45;&gt;T15</title>
<path fill="none" stroke="#000000" d="M277.8885,-258.8071C286.3272,-257.4166 295.6149,-255.8861 304.6264,-254.4012"/>
<polygon fill="#000000" stroke="#000000" points="305.3256,-257.8333 314.6235,-252.7539 304.1874,-250.9265 305.3256,-257.8333"/>
</g>
<!-- T18 -->
<g id="node8" class="node">
<title>T18</title>
<ellipse fill="#00ffff" stroke="#000000" cx="456.3198" cy="-331" rx="31.5624" ry="31.5624"/>
<text text-anchor="start" x="437.895" y="-328.4" font-family="Times,serif" font-size="12.00" fill="#000000">T</text>
<text text-anchor="start" x="445.225" y="-328.4" font-family="Times,serif" baseline-shift="sub" font-size="12.00" fill="#000000">18</text>
<text text-anchor="start" x="457.225" y="-328.4" font-family="Times,serif" font-size="12.00" fill="#000000">{8}</text>
</g>
<!-- T13&#45;&gt;T18 -->
<g id="edge6" class="edge">
<title>T13&#45;&gt;T18</title>
<path fill="none" stroke="#000000" d="M381.5794,-331.7C391.8208,-331.6041 403.3173,-331.4964 414.1656,-331.3948"/>
<polygon fill="#000000" stroke="#000000" points="414.339,-334.8934 424.3058,-331.2998 414.2734,-327.8937 414.339,-334.8934"/>
</g>
<!-- T14&#45;&gt;T12 -->
<g id="edge3" class="edge">
<title>T14&#45;&gt;T12</title>
<path fill="none" stroke="#000000" d="M178.3146,-275.6211C186.6677,-274.1948 195.8182,-272.6324 204.6243,-271.1287"/>
<polygon fill="#000000" stroke="#000000" points="205.4671,-274.5356 214.7353,-269.4023 204.2889,-267.6354 205.4671,-274.5356"/>
</g>
<!-- T16 -->
<g id="node6" class="node">
<title>T16</title>
<ellipse fill="#00ffff" stroke="#000000" cx="456.3198" cy="-248" rx="31.5624" ry="31.5624"/>
<text text-anchor="start" x="437.895" y="-245.4" font-family="Times,serif" font-size="12.00" fill="#000000">T</text>
<text text-anchor="start" x="445.225" y="-245.4" font-family="Times,serif" baseline-shift="sub" font-size="12.00" fill="#000000">16</text>
<text text-anchor="start" x="457.225" y="-245.4" font-family="Times,serif" font-size="12.00" fill="#000000">{7}</text>
</g>
<!-- T15&#45;&gt;T16 -->
<g id="edge7" class="edge">
<title>T15&#45;&gt;T16</title>
<path fill="none" stroke="#000000" d="M385.098,-247.333C394.454,-247.4206 404.6354,-247.516 414.2963,-247.6064"/>
<polygon fill="#000000" stroke="#000000" points="414.479,-251.1082 424.5113,-247.7021 414.5446,-244.1085 414.479,-251.1082"/>
</g>
<!-- T22 -->
<g id="node10" class="node">
<title>T22</title>
<ellipse fill="#00ffff" stroke="#000000" cx="456.3198" cy="-136" rx="31.5624" ry="31.5624"/>
<text text-anchor="start" x="437.895" y="-133.4" font-family="Times,serif" font-size="12.00" fill="#000000">T</text>
<text text-anchor="start" x="445.225" y="-133.4" font-family="Times,serif" baseline-shift="sub" font-size="12.00" fill="#000000">22</text>
<text text-anchor="start" x="457.225" y="-133.4" font-family="Times,serif" font-size="12.00" fill="#000000">{5}</text>
</g>
<!-- T15&#45;&gt;T22 -->
<g id="edge14" class="edge">
<title>T15&#45;&gt;T22</title>
<path fill="none" stroke="#000000" d="M374.308,-221.2554C390.015,-204.9272 410.4148,-183.7205 426.9391,-166.5426"/>
<polygon fill="#000000" stroke="#000000" points="429.8176,-168.5989 434.2279,-158.9656 424.7728,-163.746 429.8176,-168.5989"/>
</g>
<!-- T17 -->
<g id="node7" class="node">
<title>T17</title>
<ellipse fill="#00ffff" stroke="#000000" cx="563.0968" cy="-289" rx="35.2773" ry="35.2773"/>
<text text-anchor="start" x="541.672" y="-286.4" font-family="Times,serif" font-size="12.00" fill="#000000">T</text>
<text text-anchor="start" x="549.002" y="-286.4" font-family="Times,serif" baseline-shift="sub" font-size="12.00" fill="#000000">17</text>
<text text-anchor="start" x="561.002" y="-286.4" font-family="Times,serif" font-size="12.00" fill="#000000">{10}</text>
</g>
<!-- T16&#45;&gt;T17 -->
<g id="edge9" class="edge">
<title>T16&#45;&gt;T17</title>
<path fill="none" stroke="#000000" d="M486.0631,-259.4208C496.6692,-263.4933 508.8354,-268.1648 520.3191,-272.5743"/>
<polygon fill="#000000" stroke="#000000" points="519.1655,-275.8805 529.7556,-276.1977 521.6748,-269.3457 519.1655,-275.8805"/>
</g>
<!-- T18&#45;&gt;T17 -->
<g id="edge8" class="edge">
<title>T18&#45;&gt;T17</title>
<path fill="none" stroke="#000000" d="M486.0631,-319.3007C496.7656,-315.0909 509.0567,-310.2563 520.6321,-305.7032"/>
<polygon fill="#000000" stroke="#000000" points="522.1117,-308.8823 530.1365,-301.9647 519.5493,-302.3681 522.1117,-308.8823"/>
</g>
<!-- T21 -->
<g id="node9" class="node">
<title>T21</title>
<ellipse fill="#00ffff" stroke="#000000" cx="349.5428" cy="-92" rx="35.2773" ry="35.2773"/>
<text text-anchor="start" x="328.118" y="-89.4" font-family="Times,serif" font-size="12.00" fill="#000000">T</text>
<text text-anchor="start" x="335.4481" y="-89.4" font-family="Times,serif" baseline-shift="sub" font-size="12.00" fill="#000000">21</text>
<text text-anchor="start" x="347.4481" y="-89.4" font-family="Times,serif" font-size="12.00" fill="#000000">{40}</text>
</g>
<!-- T21&#45;&gt;T22 -->
<g id="edge10" class="edge">
<title>T21&#45;&gt;T22</title>
<path fill="none" stroke="#000000" d="M382.4507,-105.5605C393.4613,-110.0977 405.8418,-115.1993 417.2745,-119.9105"/>
<polygon fill="#000000" stroke="#000000" points="416.0249,-123.181 426.6041,-123.755 418.6919,-116.7089 416.0249,-123.181"/>
</g>
<!-- T23 -->
<g id="node11" class="node">
<title>T23</title>
<ellipse fill="#00ffff" stroke="#000000" cx="456.3198" cy="-51" rx="35.2773" ry="35.2773"/>
<text text-anchor="start" x="434.895" y="-48.4" font-family="Times,serif" font-size="12.00" fill="#000000">T</text>
<text text-anchor="start" x="442.225" y="-48.4" font-family="Times,serif" baseline-shift="sub" font-size="12.00" fill="#000000">23</text>
<text text-anchor="start" x="454.225" y="-48.4" font-family="Times,serif" font-size="12.00" fill="#000000">{50}</text>
</g>
<!-- T21&#45;&gt;T23 -->
<g id="edge11" class="edge">
<title>T21&#45;&gt;T23</title>
<path fill="none" stroke="#000000" d="M382.7424,-79.2521C392.485,-75.5112 403.2795,-71.3663 413.5307,-67.4301"/>
<polygon fill="#000000" stroke="#000000" points="415.0599,-70.5921 423.1407,-63.74 412.5506,-64.0573 415.0599,-70.5921"/>
</g>
<!-- T24 -->
<g id="node12" class="node">
<title>T24</title>
<ellipse fill="#00ffff" stroke="#000000" cx="563.0968" cy="-93" rx="31.5624" ry="31.5624"/>
<text text-anchor="start" x="544.672" y="-90.4" font-family="Times,serif" font-size="12.00" fill="#000000">T</text>
<text text-anchor="start" x="552.002" y="-90.4" font-family="Times,serif" baseline-shift="sub" font-size="12.00" fill="#000000">24</text>
<text text-anchor="start" x="564.002" y="-90.4" font-family="Times,serif" font-size="12.00" fill="#000000">{7}</text>
</g>
<!-- T22&#45;&gt;T24 -->
<g id="edge12" class="edge">
<title>T22&#45;&gt;T24</title>
<path fill="none" stroke="#000000" d="M486.0631,-124.0221C497.8647,-119.2695 511.5981,-113.7389 524.1734,-108.6748"/>
<polygon fill="#000000" stroke="#000000" points="525.5443,-111.8959 533.5129,-104.9137 522.9294,-105.4026 525.5443,-111.8959"/>
</g>
<!-- T23&#45;&gt;T24 -->
<g id="edge13" class="edge">
<title>T23&#45;&gt;T24</title>
<path fill="none" stroke="#000000" d="M489.5194,-64.0588C500.3151,-68.3053 512.4025,-73.0598 523.6111,-77.4686"/>
<polygon fill="#000000" stroke="#000000" points="522.5932,-80.8292 533.1803,-81.2326 525.1555,-74.315 522.5932,-80.8292"/>
</g>
</g>
</svg>
